<?xml version="1.0" encoding="UTF-8" standalone="no"?>
<svg
   xmlns:dc="http://purl.org/dc/elements/1.1/"
   xmlns:cc="http://creativecommons.org/ns#"
   xmlns:rdf="http://www.w3.org/1999/02/22-rdf-syntax-ns#"
   xmlns:svg="http://www.w3.org/2000/svg"
   xmlns="http://www.w3.org/2000/svg"
   xmlns:sodipodi="http://sodipodi.sourceforge.net/DTD/sodipodi-0.dtd"
   xmlns:inkscape="http://www.inkscape.org/namespaces/inkscape"
   width="208"
   height="48"
   viewBox="0 0 55.033332 12.7"
   version="1.1"
   id="svg8"
   inkscape:version="1.0.2 (e86c870879, 2021-01-15)"
   sodipodi:docname="logo.svg">
  <defs
     id="defs2" />
  <sodipodi:namedview
     id="base"
     pagecolor="#ffffff"
     bordercolor="#666666"
     borderopacity="1.0"
     inkscape:pageopacity="0.0"
     inkscape:pageshadow="2"
     inkscape:zoom="5.6"
     inkscape:cx="61.600549"
     inkscape:cy="30.956183"
     inkscape:document-units="mm"
     inkscape:current-layer="layer1"
     inkscape:document-rotation="0"
     showgrid="false"
     units="px"
     inkscape:window-width="2560"
     inkscape:window-height="1019"
     inkscape:window-x="1920"
     inkscape:window-y="25"
     inkscape:window-maximized="1" />
  <metadata
     id="metadata5">
    <rdf:RDF>
      <cc:Work
         rdf:about="">
        <dc:format>image/svg+xml</dc:format>
        <dc:type
           rdf:resource="http://purl.org/dc/dcmitype/StillImage" />
        <dc:title />
      </cc:Work>
    </rdf:RDF>
  </metadata>
  <g
     inkscape:label="Layer 1"
     inkscape:groupmode="layer"
     id="layer1">
    <g
       id="g1073">
      <text
         xml:space="preserve"
         style="font-weight:600;font-size:7.05556px;line-height:1.25;font-family:Lexend;-inkscape-font-specification:'Lexend Semi-Bold';fill:#f46262;fill-opacity:1;stroke-width:0.264583"
         x="16.82663"
         y="8.6337414"
         id="text1404"><tspan
           sodipodi:role="line"
           id="tspan1402"
           x="16.82663"
           y="8.6337414"
           style="fill:#f46262;fill-opacity:1;stroke-width:0.264583"><tspan
             style="fill:#ffffff"
             id="tspan1485">Free</tspan><tspan
             style="fill:#6f48c9;fill-opacity:1"
             id="tspan995">Jobs</tspan></tspan></text>
      <g
         id="g1043">
        <path
           d="M 14.878389,7.7025592 V 1.3170529 H 6.9469708 v 6.5673505 c 0,0.4725614 0.3839335,0.8557035 0.857471,0.8557035 H 15.91808 c -0.574185,0 -1.039691,-0.4645463 -1.039691,-1.0375477 z m 0,0"
           fill="#f46262"
           id="path1406"
           style="stroke-width:0.0213959;fill:#9164fa;fill-opacity:1" />
        <path
           d="m 15.91808,8.7401069 c -0.574185,0 -1.039691,-0.4645463 -1.039691,-1.0375477 V 6.0232964 h 2.079382 v 1.6792628 c 0,0.5730014 -0.465506,1.0375477 -1.039691,1.0375477 z m 0,0"
           fill="#e4edfb"
           id="path1408"
           style="stroke-width:0.0213959" />
        <path
           d="m 9.2059789,10.084986 -1.6542857,1.643779 c -0.1408063,0.140767 -0.3256198,0.21115 -0.5103496,0.21115 -0.1848135,0 -0.3695433,-0.07038 -0.5106005,-0.21115 -0.2821146,-0.281282 -0.2821146,-0.737646 0,-1.018929 L 8.137173,9.1135638 c 0.2550911,0.4169563 0.6263076,0.7555974 1.0688059,0.9714222 z m 0,0"
           fill="#e4edfb"
           id="path1410"
           style="stroke-width:0.0213959" />
        <path
           d="m 13.549389,7.7774508 c 0,-1.7693499 -1.442449,-3.2088251 -3.215454,-3.2088251 -1.7730046,0 -3.2154533,1.4394752 -3.2154533,3.2088251 0,0.2447133 0.027693,0.4830814 0.079983,0.7123488 0.1551128,0.154626 0.369376,0.2503073 0.6059774,0.2503073 h 5.5970289 c 0.09596,-0.3040759 0.147918,-0.627438 0.147918,-0.9626561 z m 0,0"
           fill="#ef4848"
           id="path1412"
           style="stroke-width:0.0213959;fill:#6f48c9;fill-opacity:1" />
        <path
           d="M 9.2059789,10.084986 8.7300988,10.557965 C 8.3075963,10.314087 7.9453317,9.9773661 7.6720019,9.5756053 L 8.137173,9.1135638 c 0.2550911,0.4169563 0.6263076,0.7555974 1.0688059,0.9714222 z m 0,0"
           fill="#bcc8d9"
           id="path1414"
           style="stroke-width:0.0213959" />
        <path
           d="m 12.906264,7.7774508 c 0,1.4176842 -1.151633,2.5670272 -2.572329,2.5670272 -1.420696,0 -2.5723291,-1.149343 -2.5723291,-2.5670272 0,-1.4177675 1.1516331,-2.5671101 2.5723291,-2.5671101 1.420696,0 2.572329,1.1493426 2.572329,2.5671101 z m 0,0"
           fill="#e4edfb"
           id="path1416"
           style="stroke-width:0.0213959" />
        <path
           d="m 12.048793,7.7774508 c 0,0.9451227 -0.767783,1.7113234 -1.714858,1.7113234 -0.9470749,0 -1.7149418,-0.7662007 -1.7149418,-1.7113234 0,-0.9452061 0.7678669,-1.7114068 1.7149418,-1.7114068 0.947075,0 1.714858,0.7662007 1.714858,1.7114068 z m 0,0"
           fill="#92d8ff"
           id="path1418"
           style="stroke-width:0.0213959" />
        <path
           d="M 15.521513,8.3442742 V 6.0232964 h -0.643124 v 1.6792628 c 0,0.5730014 0.465506,1.0375477 1.039691,1.0375477 -0.218697,0 -0.396567,-0.1775864 -0.396567,-0.3958327 z m 0,0"
           fill="#bcc8d9"
           id="path1420"
           style="stroke-width:0.0213959" />
        <path
           d="m 10.333935,6.7078426 c 0.837141,0 1.53381,0.5987167 1.684321,1.3904657 0.01983,-0.1040301 0.03054,-0.2111496 0.03054,-0.3208575 0,-0.9452061 -0.767783,-1.7114068 -1.714858,-1.7114068 -0.9471584,0 -1.7149418,0.7662007 -1.7149418,1.7114068 0,0.1097079 0.010793,0.2168274 0.030621,0.3208575 0.1505112,-0.791749 0.8471802,-1.3904657 1.6843208,-1.3904657 z m 0,0"
           fill="#4abef0"
           id="path1422"
           style="stroke-width:0.0213959" />
        <g
           fill="#ffffff"
           id="g1442"
           transform="matrix(0.02141795,0,0,0.0213738,6.1476462,1.1565824)">
          <path
             d="M 67.347656,30.027344 H 82.359375 V 45.039062 H 67.347656 Z m 0,0"
             id="path1424" />
          <path
             d="m 360.59766,30.027344 h 15.01171 v 15.011718 h -15.01171 z m 0,0"
             id="path1426" />
          <path
             d="m 375.60937,315.76953 h -15.01171 v -15.01172 h 15.01171 z m 0,-30.02734 h -15.01171 v -15.01172 h 15.01171 z m 0,-30.02344 h -15.01171 v -15.01172 h 15.01171 z m 0,-30.02734 h -15.01171 v -15.01172 h 15.01171 z m 0,0"
             id="path1428" />
          <path
             d="m 105.74219,158.13672 c -24.207034,0 -43.89844,-19.69531 -43.89844,-43.90234 h 15.011719 c 0,15.92968 12.957031,28.88671 28.886721,28.88671 15.92969,0 28.89062,-12.95703 28.89062,-28.88671 V 55.546875 h 15.01172 v 58.687505 c 0,24.20703 -19.69531,43.90234 -43.90234,43.90234 z m 0,0"
             id="path1430" />
          <path
             d="m 215.60937,158.13672 c -27.59375,0 -50.04296,-22.44922 -50.04296,-50.04297 v -6.37109 c 0,-27.593754 22.44921,-50.042972 50.04296,-50.042972 27.59375,0 50.04297,22.449218 50.04297,50.042972 v 6.37109 c 0,27.59375 -22.44922,50.04297 -50.04297,50.04297 z m 0,-91.441408 c -19.3164,0 -35.02734,15.714844 -35.02734,35.027348 v 6.37109 c 0,19.3125 15.71094,35.02734 35.02734,35.02734 19.31641,0 35.03125,-15.71484 35.03125,-35.02734 v -6.37109 c 0,-19.312504 -15.71484,-35.027348 -35.03125,-35.027348 z m 0,0"
             id="path1432" />
          <path
             d="M 329.34375,113.09766 H 280.02734 V 53.046875 h 49.31641 c 16.55469,0 30.02344,13.46875 30.02344,30.023437 0,16.558594 -13.46875,30.027348 -30.02344,30.027348 z M 295.04297,98.082031 h 34.30078 c 8.27734,0 15.01172,-6.734375 15.01172,-15.011719 0,-8.277343 -6.73438,-15.011718 -15.01172,-15.011718 h -34.30078 z m 0,0"
             id="path1434" />
          <path
             d="M 329.34375,158.13672 H 280.02734 V 98.082031 h 49.31641 c 16.55469,0 30.02344,13.472659 30.02344,30.027339 0,16.55469 -13.46875,30.02735 -30.02344,30.02735 z m -34.30078,-15.01563 h 34.30078 c 8.27734,0 15.01172,-6.73437 15.01172,-15.01172 0,-8.27734 -6.73438,-15.01171 -15.01172,-15.01171 h -34.30078 z m 0,0"
             id="path1436" />
          <path
             d="m 220.47656,276.23437 h 15.01563 V 291.25 h -15.01563 z m 0,0"
             id="path1438" />
          <path
             d="m 233.48828,305.26172 h 15.01563 v 15.01172 h -15.01563 z m 0,0"
             id="path1440" />
        </g>
        <path
           d="m 12.209595,7.7774508 c 0,-1.0321207 -0.841407,-1.8717936 -1.87566,-1.8717936 -0.05564,0 -0.111775,0.00242 -0.166826,0.00726 l 0.02828,0.319605 c 0.04568,-0.00401 0.09228,-0.00601 0.138547,-0.00601 0.856969,0 1.55414,0.6957341 1.55414,1.5509364 0,0.8552025 -0.697171,1.5509364 -1.55414,1.5509364 -0.289561,0 -0.5720097,-0.079985 -0.8168103,-0.2311876 L 9.3478728,9.3699661 c 0.2956682,0.182679 0.636682,0.2792786 0.9860622,0.2792786 1.034253,0 1.87566,-0.839673 1.87566,-1.8717939 z m 0,0"
           id="path1444"
           style="stroke-width:0.0213959" />
        <path
           d="M 9.9093409,6.2850421 9.821745,5.9762907 C 9.0189064,6.2032204 8.4582748,6.9438726 8.4582748,7.7773675 c 0,0.5239086 0.2222113,1.0273616 0.6097423,1.3811982 L 9.2850411,8.9218675 C 8.9639394,8.6286457 8.7797951,8.2115228 8.7797951,7.7774508 c 0,-0.6907243 0.4645018,-1.3043862 1.1295458,-1.4924087 z m 0,0"
           id="path1446"
           style="stroke-width:0.0213959" />
        <path
           d="M 7.1077727,1.4774399 H 11.127069 V 1.1565824 H 6.7862525 v 4.1179631 h 0.3215202 z m 0,0"
           id="path1448"
           style="stroke-width:0.0213959" />
        <path
           d="M 15.039191,5.862826 V 1.1565824 h -3.590602 v 0.3208575 h 3.269082 v 6.2251193 c 0,0.3460717 0.148001,0.6581627 0.383933,0.877077 h -2.155265 c 0.07839,-0.2537303 0.120727,-0.5231571 0.120727,-0.8021854 0,-0.6862992 -0.256346,-1.3420408 -0.721684,-1.8466628 L 12.10878,6.1481162 c 0.410623,0.4451761 0.636766,1.0237715 0.636766,1.6293346 0,1.3269291 -1.081857,2.4065562 -2.411611,2.4065562 -1.3297535,0 -2.4115272,-1.0796271 -2.4115272,-2.4065562 0,-1.3270122 1.0817737,-2.4066396 2.4115272,-2.4066396 0.570002,0 1.123104,0.2021326 1.557403,0.5690774 L 12.099159,5.6950083 C 11.606797,5.2790541 10.979904,5.0499537 10.333935,5.0499537 c -1.5070371,0 -2.7331311,1.2234831 -2.7331311,2.7274971 0,0.2771081 0.041748,0.5446981 0.1191374,0.796842 C 7.3754971,8.5325472 7.1077727,8.2391584 7.1077727,7.8844034 V 5.595403 H 6.7862525 v 2.2890004 c 0,0.5602274 0.4568047,1.0160903 1.0181893,1.0160903 h 0.038987 c 0.028697,0.063287 0.059903,0.1251537 0.093202,0.1856849 L 6.4169602,10.596371 c -0.1667421,0.166399 -0.258605,0.387651 -0.258605,0.62293 0,0.235362 0.091863,0.456614 0.258605,0.623012 0.1720966,0.171742 0.39824,0.257655 0.6242998,0.257655 0.2259761,0 0.4520358,-0.08583 0.6239651,-0.257404 l 1.5753907,-1.565631 c 0.33499,0.146444 0.7047844,0.228015 1.0933192,0.228015 1.10612,0 2.060808,-0.6591644 2.490506,-1.6044543 h 3.249923 l 4.18e-4,-0.01052 c 0.588073,-0.076896 1.043706,-0.5798479 1.043706,-1.1874148 V 5.862826 Z m -7.6011133,5.752558 c -0.2188647,0.218497 -0.5749381,0.218413 -0.7938028,0 C 6.5382728,11.5096 6.4798754,11.368917 6.4798754,11.219301 c 0,-0.149617 0.058397,-0.2903 0.1641485,-0.395833 L 8.1114881,9.3652905 c 0.220789,0.3076658 0.5022344,0.5653204 0.827854,0.7581855 z M 16.796969,7.7025592 c 0,0.4771534 -0.383934,0.8663068 -0.859646,0.8765763 l -0.02627,3.334e-4 C 15.42965,8.5756287 15.039191,8.1838035 15.039191,7.7025592 V 6.1836835 h 1.757778 z m 0,0"
           id="path1450"
           style="stroke-width:0.0213959" />
      </g>
    </g>
  </g>
</svg>
